<svg xmlns="http://www.w3.org/2000/svg" viewBox="0 0 542.33 113.39"><defs><style>.cls-1{fill:#00ddea;fill-rule:evenodd;}</style></defs><g id="图层_2" data-name="图层 2"><g id="图层_1-2" data-name="图层 1"><path class="cls-1" d="M360.81,53.63c.09-1,.13-1.78.13-2.28a13.48,13.48,0,0,0-.82-4.73,7,7,0,0,0-3-3.52c-1.7-1.06-4.35-1.5-7.86-1.31a17.74,17.74,0,0,0-2.66.33,24.55,24.55,0,0,0-8,3.17,20.33,20.33,0,0,0-4.8,4.13l-.5.57-.06-.76a9.36,9.36,0,0,0-1.13-3.72,6.54,6.54,0,0,0-3-2.73,14.26,14.26,0,0,0-6.06-1,25,25,0,0,0-9.58,1.9,19.65,19.65,0,0,0-7.62,5.51l-.85,1,1.71-7.72H294a2.25,2.25,0,0,0-2.18,1.74L282.46,87h16.25l5.55-25.26c.91-3.47,3.9-6.18,6.89-6.21h.05a4.23,4.23,0,0,1,3.28,1.5,5.91,5.91,0,0,1,1.12,4.71h0l-.1.47L310.08,87h16.08l5.56-25.27c.9-3.47,3.89-6.18,6.89-6.21h0a4.2,4.2,0,0,1,3.28,1.5,5.84,5.84,0,0,1,1.12,4.71h0l-.1.47L337.54,87h16.11l6.5-29.35A34.5,34.5,0,0,0,360.81,53.63ZM514.3,69.31c6.6-12.59,12.2-25.81,12.93-27.57h15.1c-2.32,4.52-20.69,40.17-29.1,52.34-9,13-25,11.7-27.55,11.4l2.59-12.19a16.26,16.26,0,0,0,9.94-2.23h0a20,20,0,0,0,4.53-4.32l.07-.12-6-44.87h14.92l2,28.55ZM283,51.05a15.43,15.43,0,0,0-6.46-6.77c-2.94-1.69-6.89-2.54-11.76-2.54A32.14,32.14,0,0,0,252.59,44,26.88,26.88,0,0,0,243.46,50a27.53,27.53,0,0,0-5.77,8.79,27.07,27.07,0,0,0-2,10.27,21.92,21.92,0,0,0,2,9.48,15.55,15.55,0,0,0,6.5,6.86c3,1.71,6.92,2.58,11.72,2.58a31.48,31.48,0,0,0,12.2-2.25,27.16,27.16,0,0,0,16.91-25.17A21.86,21.86,0,0,0,283,51.05ZM268.86,64.61c-.77,5.55-5.16,10.34-9.79,10.68l-.51,0a6.2,6.2,0,0,1-4.58-2,9.15,9.15,0,0,1-2-7.64c.76-5.55,5.16-10.34,9.79-10.68A6.23,6.23,0,0,1,266.82,57,9.18,9.18,0,0,1,268.86,64.61ZM215.41,41.74c4.87,0,8.84.86,11.78,2.54a15.51,15.51,0,0,1,6.45,6.77,22,22,0,0,1,2.05,9.53,26.93,26.93,0,0,1-2,10.27,27,27,0,0,1-14.89,14.9A31.55,31.55,0,0,1,206.58,88c-4.81,0-8.75-.87-11.72-2.57a15.6,15.6,0,0,1-6.5-6.86,22.11,22.11,0,0,1-2.05-9.49,27.08,27.08,0,0,1,2-10.27A27.47,27.47,0,0,1,194.09,50,26.76,26.76,0,0,1,203.22,44,31.87,31.87,0,0,1,215.41,41.74ZM209.67,75c4.63-.34,9-5.13,9.79-10.68a9.19,9.19,0,0,0-2-7.65,6.26,6.26,0,0,0-5.09-1.92c-4.63.34-9,5.13-9.79,10.68a9.15,9.15,0,0,0,2,7.64,6.2,6.2,0,0,0,4.58,2ZM491,73.13a1.77,1.77,0,0,1-1.64-.21c-.64-.53-.79-1.64-.42-3.29l5.62-25.18H481.46l-1.07,5.27-.43-.54a22.13,22.13,0,0,0-6.47-5.55,18.44,18.44,0,0,0-7.78-1.89A20.67,20.67,0,0,0,456.33,44a26.88,26.88,0,0,0-7.93,6.16,29.09,29.09,0,0,0-5.46,9,30.56,30.56,0,0,0-2,10.92,21.42,21.42,0,0,0,1.95,9.32,15,15,0,0,0,5.54,6.3,15.67,15.67,0,0,0,8.6,2.28,21.19,21.19,0,0,0,16.08-7.78l.57-.75s-.8,3.83,1.62,6.14c1.51,1.43,4.33,1.56,6.12,1.51A13.42,13.42,0,0,0,488.31,85Zm-15.58-9c-.75,5.5-5.09,10.24-9.67,10.58h0l-.48,0a6.17,6.17,0,0,1-4.53-1.92,9.07,9.07,0,0,1-2-7.58c.75-5.5,5.09-10.24,9.67-10.58a6.17,6.17,0,0,1,5,1.91A9,9,0,0,1,475.38,64.09ZM397.22,41.74a14.85,14.85,0,0,1,8.36,2.32A15.32,15.32,0,0,1,411,50.41a21.64,21.64,0,0,1,1.91,9.32,30,30,0,0,1-2,10.89,31.65,31.65,0,0,1-5.44,9.14A25.69,25.69,0,0,1,397.65,86a19.8,19.8,0,0,1-9.11,2.26,14.16,14.16,0,0,1-7.62-1.9A8.93,8.93,0,0,1,377,80.89l-.33-1.3-5.78,26.08H354.71l13.43-61.43a2.3,2.3,0,0,1,2.24-1.8h12.1l-1.7,7.88.84-1a22.21,22.21,0,0,1,6.89-5.62A19.05,19.05,0,0,1,397.22,41.74Zm-11,33.11c4.6-.34,9-5.11,9.72-10.64a9.1,9.1,0,0,0-2-7.61,6.15,6.15,0,0,0-5.05-1.92c-4.6.34-9,5.11-9.72,10.63a9.15,9.15,0,0,0,2,7.62,6.14,6.14,0,0,0,4.54,1.93Zm-222.33-50c12.67.09,19.84,6.61,19.84,14.73s-6.08,14.27-12.63,15.94h0c9.1,1.21,13.09,9.75,11.58,17.14-2.56,12.45-13.3,15.59-27,16h-.19l-.71,0h0l-1.46,0H128.7a1.8,1.8,0,0,1-1.76-2.18l12.7-59.93a2.26,2.26,0,0,1,2.2-1.79h22Zm-6.66,51.09a7.92,7.92,0,0,0,7.49-6.4,6,6,0,0,0-1.06-4.93,5.29,5.29,0,0,0-4.08-2.1l-11.79,0L145,75.87ZM161.48,50a7.19,7.19,0,0,0,6.75-5.8,5.42,5.42,0,0,0-1-4.48,4.82,4.82,0,0,0-3.78-1.91L153,37.72,150.51,50Zm269.26,19.7h0l-.06.37q-.06.33-.12.63a5.56,5.56,0,0,0-.09,1c0,2.38,1.21,3.64,3.5,3.64a8.11,8.11,0,0,0,2.29-.37,11.09,11.09,0,0,0,1.85-.68L435.55,86a25.38,25.38,0,0,1-4.66,1.71,27.87,27.87,0,0,1-7.08.78c-3.55,0-6.29-.78-8.13-2.33a8.26,8.26,0,0,1-2.76-6.7c0-.62,0-1.25.08-1.89a13.25,13.25,0,0,1,.35-2l10.8-49.29a2.24,2.24,0,0,1,2.19-1.74h14.12Z"/><path class="cls-1" d="M56.69,0a56.7,56.7,0,1,0,56.7,56.7A56.7,56.7,0,0,0,56.69,0ZM66,88.75H37a6.45,6.45,0,0,1-6.23-7.87l3.92-17.45a.36.36,0,0,1,.4-.27l16.8,2.21a8,8,0,0,0-1.69,4.94v.15a8,8,0,0,0,16.06.11c.13-4.47-3.33-7.69-7.7-8.29L56.33,62,36,59.28a.35.35,0,0,1-.29-.43l5-22.17a.35.35,0,0,1,.39-.28l13.26,1.77a6.57,6.57,0,0,0-1,3.6,6.66,6.66,0,0,0,13.31,0c.09-3.63-2.52-6.31-6.27-6.82l-3.84-.51L42,32.54a.37.37,0,0,1-.3-.43L43,26.59a2.5,2.5,0,0,1,2.42-1.95s15.5,0,20.66,0a14.65,14.65,0,0,1,2.13,29.13c-.47.06-1.7.15-1.83.15.11,0,1.28.06,1.86.14A17.43,17.43,0,0,1,66,88.75Z"/></g></g></svg>